<svg xmlns="http://www.w3.org/2000/svg" viewBox="0 0 512 512" width="512" height="512">
  <circle cx="256" cy="256" r="220" fill="#fff3e6"/>
  <g fill="#e9c46a" stroke="#2b2033" stroke-width="10" stroke-linecap="round" stroke-linejoin="round">
    <circle cx="410" cy="110" r="38"/>
    <path d="M410 40v18M410 162v18M340 110h18M462 110h18M360 60l13 13M447 147l13 13M460 60l-13 13M373 147l-13 13"/>
  </g>
  <g fill="#f7b78f" fill-opacity=".5">
    <circle cx="300" cy="112" r="6"/><circle cx="60" cy="170" r="7"/><circle cx="90" cy="410" r="5"/><circle cx="450" cy="380" r="6"/>
  </g>
  <g stroke="#2b2033" stroke-width="12" stroke-linecap="round" stroke-linejoin="round">
    <circle cx="240" cy="300" r="140" fill="#9fd8f0"/>
    <path d="M150 232c30-22 70-18 92 4s60 20 82-4M136 300c40-6 70 12 100 8s60-22 110-8M165 372c28-16 66-12 90 4s60 14 84-2" fill="none" stroke-width="10" stroke="#5fb08a"/>
  </g>
  <g fill="#7cc4a0" stroke="#2b2033" stroke-width="8" stroke-linejoin="round">
    <path d="M170 236c24-16 52-14 66 2s6 34-12 40-46-4-58-16-10-20 4-26z"/>
    <path d="M262 318c22-12 50-8 62 8s-4 30-24 32-46-6-50-18 0-16 12-22z"/>
    <path d="M206 384c14-8 34-8 44 2s-2 22-18 22-32-8-34-14 0-6 8-10z"/>
  </g>
  <g stroke="#2b2033" stroke-width="12" stroke-linecap="round">
    <path d="M380 300l38 0"/>
    <path d="M340 190l28-28"/>
  </g>
  <path d="M340 190l-30 6" stroke="#2b2033" stroke-opacity=".55" stroke-width="12" stroke-linecap="round"/>
  <path d="M96 220c-10-12-16-22-14-38 8-2 16 4 20 12" fill="none" stroke="#2b2033" stroke-width="8" stroke-linecap="round" stroke-linejoin="round"/>
</svg>
